<svg xmlns="http://www.w3.org/2000/svg" viewBox="0 0 400 240" fill="none">
  <defs>
    <linearGradient id="chartBg" x1="0" y1="0" x2="400" y2="240" gradientUnits="userSpaceOnUse">
      <stop stop-color="#fff8f5"/>
      <stop offset="1" stop-color="#ffebe0"/>
    </linearGradient>
  </defs>
  <rect width="400" height="240" fill="url(#chartBg)" rx="8"/>
  <!-- Chart title area -->
  <rect x="16" y="12" width="120" height="16" rx="2" fill="#C2410C" opacity="0.9"/>
  <rect x="16" y="34" width="80" height="10" rx="2" fill="#e0e0e0"/>
  <!-- Bar chart area -->
  <rect x="48" y="52" width="320" height="168" rx="4" fill="white" stroke="#e8e8e8" stroke-width="1"/>
  <!-- Y-axis labels -->
  <rect x="56" y="60" width="24" height="8" rx="1" fill="#f0f0f0"/>
  <rect x="56" y="88" width="16" height="8" rx="1" fill="#f0f0f0"/>
  <rect x="56" y="116" width="24" height="8" rx="1" fill="#f0f0f0"/>
  <rect x="56" y="144" width="20" height="8" rx="1" fill="#f0f0f0"/>
  <rect x="56" y="172" width="24" height="8" rx="1" fill="#f0f0f0"/>
  <!-- Bar chart columns -->
  <rect x="96" y="140" width="32" height="80" rx="4" fill="#C2410C" opacity="0.9"/>
  <rect x="144" y="108" width="32" height="112" rx="4" fill="#C2410C" opacity="0.85"/>
  <rect x="192" y="76" width="32" height="144" rx="4" fill="#C2410C" opacity="0.95"/>
  <rect x="240" y="92" width="32" height="128" rx="4" fill="#C2410C" opacity="0.8"/>
  <rect x="288" y="124" width="32" height="96" rx="4" fill="#C2410C" opacity="0.9"/>
  <rect x="336" y="100" width="32" height="120" rx="4" fill="#C2410C" opacity="0.85"/>
  <!-- X-axis labels -->
  <rect x="100" y="228" width="28" height="8" rx="1" fill="#e8e8e8"/>
  <rect x="148" y="228" width="28" height="8" rx="1" fill="#e8e8e8"/>
  <rect x="196" y="228" width="28" height="8" rx="1" fill="#e8e8e8"/>
  <rect x="244" y="228" width="28" height="8" rx="1" fill="#e8e8e8"/>
  <rect x="292" y="228" width="28" height="8" rx="1" fill="#e8e8e8"/>
  <rect x="340" y="228" width="24" height="8" rx="1" fill="#e8e8e8"/>
</svg>
