<svg xmlns="http://www.w3.org/2000/svg" viewBox="0 0 400 240" fill="none">
  <defs>
    <linearGradient id="bg" x1="0" y1="0" x2="400" y2="240" gradientUnits="userSpaceOnUse">
      <stop stop-color="#f8faf8"/>
      <stop offset="1" stop-color="#e8f5e9"/>
    </linearGradient>
  </defs>
  <rect width="400" height="240" fill="url(#bg)" rx="8"/>
  <!-- Header bar -->
  <rect x="16" y="16" width="368" height="32" rx="4" fill="white" stroke="#e0e0e0" stroke-width="1"/>
  <rect x="28" y="24" width="60" height="12" rx="2" fill="#228B22"/>
  <rect x="100" y="24" width="80" height="12" rx="2" fill="#e8e8e8"/>
  <rect x="192" y="24" width="80" height="12" rx="2" fill="#e8e8e8"/>
  <rect x="284" y="24" width="80" height="12" rx="2" fill="#e8e8e8"/>
  <!-- Calendar grid -->
  <rect x="16" y="56" width="368" height="168" rx="4" fill="white" stroke="#e0e0e0" stroke-width="1"/>
  <!-- Day headers -->
  <rect x="24" y="64" width="48" height="20" rx="2" fill="#f5f5f5"/>
  <rect x="80" y="64" width="48" height="20" rx="2" fill="#f5f5f5"/>
  <rect x="136" y="64" width="48" height="20" rx="2" fill="#f5f5f5"/>
  <rect x="192" y="64" width="48" height="20" rx="2" fill="#f5f5f5"/>
  <rect x="248" y="64" width="48" height="20" rx="2" fill="#f5f5f5"/>
  <rect x="304" y="64" width="48" height="20" rx="2" fill="#f5f5f5"/>
  <rect x="360" y="64" width="24" height="20" rx="2" fill="#f5f5f5"/>
  <!-- Schedule events - Week view blocks -->
  <rect x="24" y="92" width="56" height="24" rx="4" fill="#228B22" opacity="0.9"/>
  <rect x="24" y="120" width="56" height="16" rx="2" fill="#90caf9" opacity="0.8"/>
  <rect x="88" y="92" width="56" height="36" rx="4" fill="#228B22" opacity="0.7"/>
  <rect x="152" y="92" width="56" height="20" rx="2" fill="#ffb74d" opacity="0.8"/>
  <rect x="152" y="116" width="56" height="28" rx="2" fill="#228B22" opacity="0.6"/>
  <rect x="216" y="92" width="56" height="16" rx="2" fill="#e8e8e8"/>
  <rect x="216" y="112" width="56" height="32" rx="4" fill="#228B22" opacity="0.8"/>
  <rect x="280" y="92" width="56" height="24" rx="2" fill="#90caf9" opacity="0.7"/>
  <rect x="280" y="120" width="56" height="20" rx="2" fill="#ffb74d" opacity="0.6"/>
  <rect x="344" y="92" width="32" height="48" rx="4" fill="#228B22" opacity="0.5"/>
</svg>
